<?xml version="1.0" encoding="UTF-8" standalone="no"?>
<!DOCTYPE svg PUBLIC "-//W3C//DTD SVG 1.1//EN"
 "http://www.w3.org/Graphics/SVG/1.1/DTD/svg11.dtd">
<!-- Generated by graphviz version 2.40.1 (20161225.0304)
 -->
<!-- Title: %3 Pages: 1 -->
<svg width="350pt" height="476pt"
 viewBox="0.00 0.00 349.57 476.00" xmlns="http://www.w3.org/2000/svg" xmlns:xlink="http://www.w3.org/1999/xlink">
<g id="graph0" class="graph" transform="scale(1 1) rotate(0) translate(4 472)">
<title>%3</title>
<polygon fill="#ffffff" stroke="transparent" points="-4,4 -4,-472 345.5679,-472 345.5679,4 -4,4"/>
<!-- Bowland Shale Formation -->
<g id="node1" class="node">
<title>Bowland Shale Formation</title>
<ellipse fill="none" stroke="#000000" cx="201.8748" cy="-450" rx="103.9815" ry="18"/>
<text text-anchor="middle" x="201.8748" y="-446.3" font-family="Times,serif" font-size="14.00" fill="#000000">Bowland Shale Formation</text>
</g>
<!-- Stainmore Formation -->
<g id="node2" class="node">
<title>Stainmore Formation</title>
<ellipse fill="none" stroke="#000000" cx="201.8748" cy="-378" rx="87.1846" ry="18"/>
<text text-anchor="middle" x="201.8748" y="-374.3" font-family="Times,serif" font-size="14.00" fill="#000000">Stainmore Formation</text>
</g>
<!-- Bowland Shale Formation&#45;&gt;Stainmore Formation -->
<g id="edge1" class="edge">
<title>Bowland Shale Formation&#45;&gt;Stainmore Formation</title>
<path fill="none" stroke="#000000" d="M201.8748,-431.8314C201.8748,-424.131 201.8748,-414.9743 201.8748,-406.4166"/>
<polygon fill="#000000" stroke="#000000" points="205.3749,-406.4132 201.8748,-396.4133 198.3749,-406.4133 205.3749,-406.4132"/>
</g>
<!-- Fell Sandstone Formation -->
<g id="node4" class="node">
<title>Fell Sandstone Formation</title>
<ellipse fill="none" stroke="#000000" cx="201.8748" cy="-306" rx="102.8821" ry="18"/>
<text text-anchor="middle" x="201.8748" y="-302.3" font-family="Times,serif" font-size="14.00" fill="#000000">Fell Sandstone Formation</text>
</g>
<!-- Stainmore Formation&#45;&gt;Fell Sandstone Formation -->
<g id="edge2" class="edge">
<title>Stainmore Formation&#45;&gt;Fell Sandstone Formation</title>
<path fill="none" stroke="#000000" d="M201.8748,-359.8314C201.8748,-352.131 201.8748,-342.9743 201.8748,-334.4166"/>
<polygon fill="#000000" stroke="#000000" points="205.3749,-334.4132 201.8748,-324.4133 198.3749,-334.4133 205.3749,-334.4132"/>
</g>
<!-- Cementstone Formation -->
<g id="node3" class="node">
<title>Cementstone Formation</title>
<ellipse fill="none" stroke="#000000" cx="139.8748" cy="-234" rx="96.6831" ry="18"/>
<text text-anchor="middle" x="139.8748" y="-230.3" font-family="Times,serif" font-size="14.00" fill="#000000">Cementstone Formation</text>
</g>
<!-- Devonian Period -->
<g id="node5" class="node">
<title>Devonian Period</title>
<ellipse fill="none" stroke="#000000" cx="166.8748" cy="-90" rx="70.3881" ry="18"/>
<text text-anchor="middle" x="166.8748" y="-86.3" font-family="Times,serif" font-size="14.00" fill="#000000">Devonian Period</text>
</g>
<!-- Cementstone Formation&#45;&gt;Devonian Period -->
<g id="edge3" class="edge">
<title>Cementstone Formation&#45;&gt;Devonian Period</title>
<path fill="none" stroke="#000000" d="M68.4546,-221.6623C44.8337,-213.8151 21.0015,-200.9823 6.8748,-180 -2.061,-166.7278 -2.4563,-156.9974 6.8748,-144 18.5384,-127.7535 63.2168,-113.4859 102.406,-103.7027"/>
<polygon fill="#000000" stroke="#000000" points="103.3382,-107.0781 112.2276,-101.3136 101.6836,-100.2764 103.3382,-107.0781"/>
</g>
<!-- Kirkbean Member -->
<g id="node7" class="node">
<title>Kirkbean Member</title>
<ellipse fill="none" stroke="#000000" cx="264.8748" cy="-162" rx="76.8869" ry="18"/>
<text text-anchor="middle" x="264.8748" y="-158.3" font-family="Times,serif" font-size="14.00" fill="#000000">Kirkbean Member</text>
</g>
<!-- Cementstone Formation&#45;&gt;Kirkbean Member -->
<g id="edge4" class="edge">
<title>Cementstone Formation&#45;&gt;Kirkbean Member</title>
<path fill="none" stroke="#000000" d="M164.2555,-216.5708C180.6828,-206.5109 202.6623,-193.7867 221.9339,-183.156"/>
<polygon fill="#000000" stroke="#000000" points="223.7566,-186.1485 230.8534,-178.2817 220.3998,-180.0058 223.7566,-186.1485"/>
</g>
<!-- Buchan Formation -->
<g id="node8" class="node">
<title>Buchan Formation</title>
<ellipse fill="none" stroke="#000000" cx="92.8748" cy="-162" rx="77.1866" ry="18"/>
<text text-anchor="middle" x="92.8748" y="-158.3" font-family="Times,serif" font-size="14.00" fill="#000000">Buchan Formation</text>
</g>
<!-- Cementstone Formation&#45;&gt;Buchan Formation -->
<g id="edge5" class="edge">
<title>Cementstone Formation&#45;&gt;Buchan Formation</title>
<path fill="none" stroke="#000000" d="M128.0147,-215.8314C122.5742,-207.497 116.0201,-197.4567 110.0534,-188.3162"/>
<polygon fill="#000000" stroke="#000000" points="112.9653,-186.374 104.5682,-179.9134 107.1037,-190.2004 112.9653,-186.374"/>
</g>
<!-- Fell Sandstone Formation&#45;&gt;Cementstone Formation -->
<g id="edge6" class="edge">
<title>Fell Sandstone Formation&#45;&gt;Cementstone Formation</title>
<path fill="none" stroke="#000000" d="M186.2295,-287.8314C178.9047,-279.3251 170.0498,-269.0419 162.0501,-259.752"/>
<polygon fill="#000000" stroke="#000000" points="164.4777,-257.2073 155.3002,-251.9134 159.1733,-261.775 164.4777,-257.2073"/>
</g>
<!-- Fell Sandstone Formation&#45;&gt;Kirkbean Member -->
<g id="edge7" class="edge">
<title>Fell Sandstone Formation&#45;&gt;Kirkbean Member</title>
<path fill="none" stroke="#000000" d="M220.1907,-288.0442C229.221,-278.1991 239.5122,-265.3111 245.8748,-252 255.2011,-232.4883 259.9771,-208.4348 262.4072,-190.1046"/>
<polygon fill="#000000" stroke="#000000" points="265.8976,-190.39 263.5836,-180.051 258.945,-189.5765 265.8976,-190.39"/>
</g>
<!-- Kinnesswood Formation -->
<g id="node6" class="node">
<title>Kinnesswood Formation</title>
<ellipse fill="none" stroke="#000000" cx="215.8748" cy="-18" rx="98.2828" ry="18"/>
<text text-anchor="middle" x="215.8748" y="-14.3" font-family="Times,serif" font-size="14.00" fill="#000000">Kinnesswood Formation</text>
</g>
<!-- Devonian Period&#45;&gt;Kinnesswood Formation -->
<g id="edge8" class="edge">
<title>Devonian Period&#45;&gt;Kinnesswood Formation</title>
<path fill="none" stroke="#000000" d="M178.9871,-72.2022C184.657,-63.871 191.528,-53.7748 197.7958,-44.565"/>
<polygon fill="#000000" stroke="#000000" points="200.8286,-46.3295 203.5614,-36.0931 195.0416,-42.3911 200.8286,-46.3295"/>
</g>
<!-- Kirkbean Member&#45;&gt;Cementstone Formation -->
<g id="edge11" class="edge">
<title>Kirkbean Member&#45;&gt;Cementstone Formation</title>
<path fill="none" stroke="#000000" d="M240.7455,-179.2751C224.5878,-189.1774 202.9802,-201.6988 183.865,-212.2646"/>
<polygon fill="#000000" stroke="#000000" points="182.0912,-209.2454 175.0022,-217.1192 185.4541,-215.3848 182.0912,-209.2454"/>
</g>
<!-- Kirkbean Member&#45;&gt;Devonian Period -->
<g id="edge9" class="edge">
<title>Kirkbean Member&#45;&gt;Devonian Period</title>
<path fill="none" stroke="#000000" d="M241.1517,-144.5708C228.2981,-135.1273 212.2489,-123.3361 198.3611,-113.1328"/>
<polygon fill="#000000" stroke="#000000" points="200.1723,-110.1204 190.0412,-107.0202 196.0277,-115.7616 200.1723,-110.1204"/>
</g>
<!-- Kirkbean Member&#45;&gt;Kinnesswood Formation -->
<g id="edge10" class="edge">
<title>Kirkbean Member&#45;&gt;Kinnesswood Formation</title>
<path fill="none" stroke="#000000" d="M262.6849,-143.9668C260.0686,-125.4723 254.8737,-96.0845 245.8748,-72 242.4566,-62.8516 237.6742,-53.3789 232.9307,-44.9702"/>
<polygon fill="#000000" stroke="#000000" points="235.9419,-43.186 227.8651,-36.3291 229.903,-46.7261 235.9419,-43.186"/>
</g>
</g>
</svg>
